<svg width="83" height="50" viewBox="0 0 83 50" fill="none" xmlns="http://www.w3.org/2000/svg">
<g clip-path="url(#clip0_1_17111)">
<path d="M11.1237 33.4267L9.60433 33.184C8.94779 33.0534 8.59139 32.9787 8.38505 32.8854C7.9161 32.6615 7.691 32.3255 7.691 31.8403C7.691 30.8511 8.68518 30.2165 10.2421 30.2165C11.8178 30.2165 12.7557 30.8698 12.8307 32.0269V32.0829H13.8624V32.0082C13.7874 31.2244 13.5998 30.7764 13.1684 30.3098C12.5306 29.6379 11.5552 29.302 10.2796 29.302C8.06616 29.302 6.64054 30.3098 6.64054 31.8963C6.64054 32.6428 6.94067 33.2214 7.52218 33.5946C7.97237 33.8933 8.47884 34.0426 9.77315 34.2479L11.105 34.4718C12.6056 34.7145 13.1121 35.0691 13.1121 35.8903C13.1121 36.9168 12.0241 37.6073 10.4297 37.6073C9.15413 37.6073 8.31002 37.2714 7.78479 36.5435C7.55969 36.2262 7.4659 35.9463 7.4659 35.405V35.3304H6.37793V35.405C6.4342 36.1702 6.54675 36.5622 6.82813 37.0288C7.44714 37.9806 8.7227 38.5032 10.4297 38.5032C12.7369 38.5032 14.1813 37.4767 14.1813 35.8343C14.1813 35.2371 13.9937 34.7331 13.5998 34.3412C13.1309 33.8933 12.5118 33.6506 11.1237 33.4267Z" fill="black"/>
<path d="M21.1403 29.3207C18.1578 29.3207 16.1694 31.1497 16.1694 33.8559C16.1694 34.8638 16.4883 35.8903 17.0323 36.6368C17.8764 37.8127 19.302 38.4472 21.0841 38.4472C22.3033 38.4472 23.4288 38.1113 24.2354 37.5327C25.2859 36.7302 25.9799 35.3304 25.9799 33.9493C25.9799 31.187 24.0291 29.3207 21.1403 29.3207ZM21.0841 30.2165C23.4288 30.2165 24.892 31.635 24.892 33.9119C24.892 36.0956 23.3538 37.57 21.0841 37.57C18.7393 37.57 17.2199 36.1143 17.2199 33.8746C17.2386 31.6536 18.7393 30.2165 21.0841 30.2165Z" fill="black"/>
<path d="M35.9783 36.1329C35.9783 36.3942 35.997 36.6182 36.0533 37.2528C35.7532 36.7675 35.5656 36.5249 34.8903 35.7037L29.7131 29.526L29.6943 29.5073H28.4375V38.2979H29.5067V32.2136C29.5067 31.6723 29.488 31.299 29.4129 30.5712C29.8256 31.1871 29.9569 31.355 30.5759 32.1202L35.7344 38.2793L35.7532 38.2979H37.0287V29.5073H35.9595L35.9783 36.1329Z" fill="black"/>
<path d="M40.9494 34.3039H46.6519V33.3707H40.9494V30.4405H47.0083V29.5073H39.8989V38.2979H47.1208V37.3461H40.9494V34.3039Z" fill="black"/>
<path d="M53.7421 33.4267L52.2227 33.184C51.5662 33.0721 51.2098 32.9787 51.0034 32.8854C50.5345 32.6615 50.3094 32.3442 50.3094 31.8403C50.3094 30.8511 51.3035 30.2165 52.8605 30.2165C54.4362 30.2165 55.3741 30.8698 55.4491 32.0269V32.0829H56.4808V32.0082C56.4058 31.2244 56.2182 30.7764 55.7867 30.3098C55.149 29.6379 54.1735 29.302 52.898 29.302C50.6845 29.302 49.2589 30.3098 49.2589 31.8963C49.2589 32.6428 49.559 33.2214 50.1405 33.5946C50.5907 33.8933 51.0972 34.0426 52.3915 34.2479L53.7233 34.4718C55.224 34.7145 55.7305 35.0691 55.7305 35.8903C55.7305 36.9168 54.6425 37.6073 53.0293 37.6073C51.7537 37.6073 50.9096 37.2714 50.3844 36.5435C50.1593 36.2262 50.0655 35.9463 50.0655 35.405V35.349H48.9775V35.4237C49.0338 36.1889 49.1464 36.5808 49.4277 37.0474C50.0468 37.9993 51.3223 38.5219 53.0293 38.5219C55.3365 38.5219 56.7809 37.4954 56.7809 35.853C56.7809 35.2557 56.5933 34.7518 56.1994 34.3599C55.768 33.8933 55.149 33.6506 53.7421 33.4267Z" fill="black"/>
<path d="M66.1603 29.5073H58.1318V30.4405H61.6396V38.2979H62.7088V30.4405H66.1603V29.5073Z" fill="black"/>
<path d="M71.4686 29.5447L71.4498 29.5073H70.2118L66.0287 38.2046L65.9912 38.2979H67.1355L68.411 35.629H73.2506L74.5074 38.2979H75.7079L71.4686 29.5447ZM70.8121 30.3472C70.8871 30.6271 70.9809 30.8511 71.1685 31.2617L72.8004 34.7145H68.8237L70.4369 31.2617C70.6057 30.9258 70.6995 30.6831 70.8121 30.3472Z" fill="black"/>
<path d="M75.9516 41.844H6.58398V42.3852H75.9516V41.844Z" fill="black"/>
<path d="M0 45.894H0.487711V47.5924H3.63908V45.894H4.12679V49.8881H3.63908V48.0217H0.487711V49.8881H0V45.894Z" fill="black"/>
<path d="M7.50323 45.8008C8.87257 45.8008 9.848 46.5847 9.848 47.9284C9.848 49.3469 8.64748 50.0001 7.50323 50.0001C6.34023 50.0001 5.15846 49.3469 5.15846 47.9284C5.13971 46.5847 6.13389 45.8008 7.50323 45.8008ZM7.50323 49.5522C8.47865 49.5522 9.36029 49.0296 9.36029 47.8165C9.36029 46.9206 8.66623 46.1927 7.50323 46.1927C6.34023 46.1927 5.64618 46.9206 5.64618 47.8165C5.64618 49.0296 6.50905 49.5522 7.50323 49.5522Z" fill="black"/>
<path d="M12.1738 46.3233H10.2417V45.894H14.5936V46.3233H12.6615V49.8881H12.1738V46.3233Z" fill="black"/>
<path d="M15.4565 45.894H19.0393V46.3233H15.9443V47.5924H18.5329V48.0217H15.9443V49.4588H19.0956V49.8881H15.4565V45.894Z" fill="black"/>
<path d="M19.9775 45.894H20.4653V49.4588H23.6354V49.8881H19.9775V45.894Z" fill="black"/>
<path d="M24.5358 48.7496C24.7609 49.0483 25.1548 49.5708 26.3553 49.5708C26.9744 49.5708 27.8185 49.4029 27.8185 48.7683C27.8185 47.5552 24.3107 48.619 24.3107 46.9953C24.3107 46.1367 25.0986 45.8008 26.1865 45.8008C27.237 45.8008 27.8935 46.23 28.1749 46.622L27.8185 46.9019C27.6497 46.7153 27.2745 46.2114 26.1678 46.2114C25.3612 46.2114 24.7984 46.4167 24.7984 46.9206C24.7984 48.1337 28.3062 46.9766 28.3062 48.7683C28.3062 49.4402 27.6497 50.0001 26.2991 50.0001C24.986 50.0001 24.4983 49.4589 24.1606 49.0856L24.5358 48.7496Z" fill="black"/>
<path d="M32.8456 45.894H33.4459L35.5093 49.8881H34.9653L34.4401 48.8429H31.8514L31.3262 49.8881H30.7822L32.8456 45.894ZM34.2337 48.4136L33.1645 46.2673L32.0953 48.4136H34.2337Z" fill="black"/>
<path d="M36.353 45.894H37.0471L40.0296 49.1789V45.894H40.5173V49.8881H40.0296L36.822 46.3233V49.8881H36.353V45.894Z" fill="black"/>
<path d="M41.7744 45.894H43.7628C45.0196 45.894 45.9012 46.5473 45.9012 47.8537C45.9012 49.4775 44.6632 49.8881 43.594 49.8881H41.7744V45.894ZM42.2621 49.4588H43.6877C44.0817 49.4588 45.4135 49.4028 45.4135 47.8351C45.4135 46.6593 44.5881 46.3233 43.7628 46.3233H42.2621V49.4588Z" fill="black"/>
<path d="M49.1274 45.894H51.4534C52.0912 45.894 53.0291 46.0247 53.0291 47.0139C53.0291 47.8537 52.2601 48.0964 51.7723 48.115L53.1042 49.8881H52.5039L51.2096 48.115H49.6339V49.8881H49.1462L49.1274 45.894ZM49.6152 47.6858H51.3409C52.035 47.6858 52.5602 47.5924 52.5602 46.9952C52.5602 46.4166 52.035 46.3233 51.3409 46.3233H49.6152V47.6858Z" fill="black"/>
<path d="M54.2485 45.894H57.8313V46.3233H54.7362V47.5924H57.3249V48.0217H54.7362V49.4588H57.8876V49.8881H54.2485V45.894Z" fill="black"/>
<path d="M58.8068 48.7496C59.0319 49.0483 59.4258 49.5708 60.6263 49.5708C61.2454 49.5708 62.0895 49.4029 62.0895 48.7683C62.0895 47.5552 58.5817 48.619 58.5817 46.9953C58.5817 46.1367 59.3695 45.8008 60.4575 45.8008C61.508 45.8008 62.1645 46.23 62.4459 46.622L62.0895 46.9019C61.9207 46.7153 61.5455 46.2114 60.4388 46.2114C59.6322 46.2114 59.0694 46.4167 59.0694 46.9206C59.0694 48.1337 62.5772 46.9766 62.5772 48.7683C62.5772 49.4402 61.9207 50.0001 60.5701 50.0001C59.257 50.0001 58.7693 49.4589 58.4316 49.0856L58.8068 48.7496Z" fill="black"/>
<path d="M65.6534 45.8008C67.0227 45.8008 67.9981 46.5847 67.9981 47.9284C67.9981 49.3469 66.7976 50.0001 65.6534 50.0001C64.4904 50.0001 63.3086 49.3469 63.3086 47.9284C63.3086 46.5847 64.3028 45.8008 65.6534 45.8008ZM65.6534 49.5522C66.6288 49.5522 67.5104 49.0296 67.5104 47.8165C67.5104 46.9206 66.8164 46.1927 65.6534 46.1927C64.4904 46.1927 63.7963 46.9206 63.7963 47.8165C63.8151 49.0296 64.6779 49.5522 65.6534 49.5522Z" fill="black"/>
<path d="M69.0112 45.894H71.3372C71.975 45.894 72.9129 46.0247 72.9129 47.0139C72.9129 47.8537 72.1438 48.0964 71.6561 48.115L72.988 49.8881H72.3877L71.0934 48.115H69.5177V49.8881H69.03L69.0112 45.894ZM69.4989 47.6858H71.2247C71.9187 47.6858 72.444 47.5924 72.444 46.9952C72.444 46.4166 71.9187 46.3233 71.2247 46.3233H69.4989V47.6858Z" fill="black"/>
<path d="M75.4638 46.3233H73.5317V45.894H77.8836V46.3233H75.9515V49.8881H75.4638V46.3233Z" fill="black"/>
<path d="M78.7843 48.7496C79.0094 49.0483 79.4034 49.5708 80.6039 49.5708C81.2229 49.5708 82.067 49.4029 82.067 48.7683C82.067 47.5552 78.5592 48.619 78.5592 46.9953C78.5592 46.1367 79.3471 45.8008 80.4351 45.8008C81.4855 45.8008 82.142 46.23 82.4234 46.622L82.067 46.9019C81.8982 46.7153 81.523 46.2114 80.4163 46.2114C79.6097 46.2114 79.047 46.4167 79.047 46.9206C79.047 48.1337 82.5547 46.9766 82.5547 48.7683C82.5547 49.4402 81.8982 50.0001 80.5476 50.0001C79.2345 50.0001 78.7468 49.4589 78.4092 49.0856L78.7843 48.7496Z" fill="black"/>
<path d="M44.2693 8.24934C44.2881 6.8309 44.2693 6.04703 44.2881 4.3113C44.3068 1.67972 41.6244 2.03433 41.3618 2.6689C41.9433 2.74355 42.2997 2.91153 42.2997 4.49794C42.2997 5.82306 42.2997 6.40164 42.2997 8.13736C42.2997 10.4517 45.5074 10.545 45.5074 10.545C44.6445 10.1157 44.2506 9.51847 44.2693 8.24934Z" fill="black"/>
<path d="M37.8729 7.39088C38.3794 10.8063 41.4369 11.1609 43.0689 11.6649C43.2565 11.7209 43.4441 11.7768 43.6316 11.8328C43.7067 11.8515 44.6446 12.1315 44.6446 12.1315C45.076 12.2621 46.089 12.6167 46.3328 12.7287C47.1769 13.0646 47.7397 13.4192 48.6588 14.1285C49.653 14.8937 50.1032 15.7335 50.2533 16.5361C50.4033 17.3013 50.5722 18.6264 50.122 19.8022C49.578 21.202 48.6213 22.1165 47.7022 22.6764C48.6401 22.4898 49.4654 22.3218 50.741 21.258C51.9415 20.3061 52.448 18.8877 52.4667 18.0665C52.523 16.7974 52.2416 15.6776 51.36 14.5764C51.0036 14.1845 50.5346 13.8299 50.2158 13.6245C50.0282 13.4752 48.9965 12.7474 47.4583 12.1501C47.3833 12.1128 46.2765 11.7768 46.2765 11.7582C45.001 11.4222 43.6879 11.3103 41.7183 10.3397C39.88 9.42522 40.0676 7.44687 40.0676 7.44687C40.0676 7.44687 39.88 3.19155 40.4803 2.25837C40.7804 1.75445 41.1743 1.39984 41.7371 1.17588C42.2998 0.951913 43.5754 0.709285 45.0197 1.4185C45.9764 2.07173 46.3703 2.27703 46.3703 4.40469C46.3703 5.02059 46.3703 6.64434 46.3703 8.06277C46.3703 11.1983 47.4208 11.1796 49.3904 11.4409C47.7397 10.3211 48.0586 7.95079 48.0586 6.77498C48.0773 4.27405 48.3962 2.76229 47.1019 1.75445C47.2144 1.79178 47.3082 1.82911 47.402 1.84777C49.034 2.51966 50.1407 3.75146 50.1407 5.44986C50.1407 7.0736 50.1595 7.52153 50.1407 9.07061C50.0844 12.0008 52.4292 11.7582 52.4292 11.7582C51.8289 11.3103 52.0353 8.00678 52.0165 6.49503C52.0165 4.19939 50.5722 2.35169 48.415 1.32519C46.0327 0.186702 44.2131 6.50061e-05 43.2565 6.50061e-05C43.219 6.50061e-05 43.1439 6.50061e-05 43.1064 6.50061e-05C42.1685 6.50061e-05 40.7054 -0.0932534 39.5424 0.98924C37.5915 2.7063 37.6478 5.02059 37.8729 7.39088Z" fill="black"/>
<path d="M37.7417 15.8082C37.7229 17.2266 37.7417 18.0105 37.7229 19.7462C37.7041 22.3778 40.4053 22.0232 40.6304 21.3886C40.0489 21.314 39.6925 21.146 39.6925 19.5596C39.6925 18.2345 39.6925 17.6559 39.6925 15.9202C39.6925 13.6059 36.4849 13.5126 36.4849 13.5126C37.3665 13.9418 37.7604 14.5391 37.7417 15.8082Z" fill="black"/>
<path d="M44.1381 16.6668C43.6316 13.2513 40.5741 12.8967 38.9421 12.3741C38.7545 12.3181 38.5669 12.2621 38.3794 12.1875C38.3043 12.1688 37.3664 11.8889 37.3664 11.8889C36.935 11.7582 35.922 11.4036 35.6782 11.3103C34.8341 10.9743 34.2713 10.6197 33.3522 9.91051C32.358 9.1453 31.9078 8.30544 31.7765 7.5029C31.6264 6.73769 31.4576 5.41257 31.9078 4.23676C32.4518 2.83698 33.4085 1.92246 34.3276 1.36255C33.3897 1.54919 32.5643 1.71716 31.2888 2.78099C30.0883 3.73284 29.5818 5.15128 29.563 5.97248C29.5068 7.24161 29.7881 8.36143 30.6698 9.46259C31.0262 9.87319 31.4951 10.2091 31.814 10.4144C32.0204 10.5637 33.0333 11.2916 34.5715 11.8889C34.6465 11.9262 35.7345 12.2808 35.7532 12.2808C37.0288 12.6167 38.3418 12.7287 40.3114 13.6992C42.1497 14.6138 41.9622 16.5921 41.9622 16.5921C41.9622 16.5921 42.1497 20.8474 41.5495 21.7806C41.2494 22.2845 40.8554 22.6391 40.2927 22.8631C39.7299 23.0871 38.4544 23.3297 37.01 22.6205C36.0534 21.9672 35.6594 21.7619 35.6594 19.6343C35.6594 19.0184 35.6594 17.3946 35.6594 15.9949C35.6594 12.878 34.609 12.878 32.6394 12.6167C34.2901 13.7366 33.9712 16.1069 33.9712 17.2827C33.9524 19.7836 33.6336 21.2954 34.9279 22.3032C34.8153 22.2659 34.7215 22.2472 34.6277 22.2099C32.9958 21.538 31.889 20.3062 31.889 18.6078C31.889 16.984 31.8703 16.5361 31.889 14.987C31.9266 12.0755 29.6006 12.2995 29.6006 12.2995C30.2008 12.7474 30.0132 16.0509 30.0132 17.5626C30.0132 19.8583 31.4576 21.706 33.6148 22.7325C35.9971 23.8709 37.8166 24.0576 38.7733 24.0576C38.8108 24.0576 38.8858 24.0576 38.9421 24.0576C39.8613 24.0576 41.3431 24.1509 42.5062 23.0684C44.4195 21.3513 44.3632 19.0371 44.1381 16.6668Z" fill="black"/>
<path d="M43.5005 12.3741C43.4818 12.3554 43.4443 12.3554 43.4067 12.3368C43.2754 12.2808 42.8065 12.1315 42.3 12.0008C42.3188 12.0008 40.1053 11.4782 40.1053 11.4782C38.4733 10.993 35.6596 9.57453 35.8097 5.84179C35.9598 1.84776 37.4604 0.821259 38.3045 0.429321C37.4041 0.429321 34.0464 1.15721 33.7275 5.71114C33.4274 9.40655 36.41 11.0303 38.4921 11.7022C38.6797 11.7582 39.0173 11.8702 39.355 11.9635C39.4863 12.0008 41.9061 12.6167 41.9061 12.6167C43.538 13.102 46.3518 14.5204 46.2017 18.2531C46.0516 22.2472 44.5697 23.2737 43.7069 23.6656C44.6073 23.6656 47.965 22.9377 48.2839 18.3838C48.5652 14.6697 45.5827 13.046 43.5005 12.3741Z" fill="black"/>
</g>
<defs>
<clipPath id="clip0_1_17111">
<rect width="82.5545" height="50" fill="white"/>
</clipPath>
</defs>
</svg>
